pedal_clip_forces_x_-0.09_y_-0.06.mot
version=1
nRows=104
nColumns=4
inDegrees=yes
endheader
time	PedalClip_calcn_r_Fx	PedalClip_calcn_r_Fy	PedalClip_calcn_r_Fz
0.42620202	-90.450346912307	94.6323954925748	0
0.42662038	-90.2503096989998	93.8227826820764	0
0.42666221	-90.0511131719939	93.0149288355991	0
0.4267144	-89.8527659391835	92.2088519379792	0
0.42697533	-89.6552592609075	91.4044414488863	0
0.42724455	-89.4586024394342	90.6016099526926	0
0.42774885	-89.2628527234055	89.8004605508267	0
0.42779928	-89.0680662042983	89.0011406062154	0
0.42789468	-88.8742964861226	88.2037231188707	0
0.42820374	-88.6816004393157	87.4082503870378	0
0.42846869	-88.4900657697873	86.6149282377699	0
0.42899177	-88.2997896498279	85.8240539214204	0
0.42904408	-88.1108616148732	85.0359204299675	0
0.42913064	-87.9233665774335	84.25086147922	0
0.4294782	-87.737401250493	83.4693243161554	0
0.43027196	-87.5530565799081	82.691742598353	0
0.4303833	-87.3704130702211	81.9184874665894	0
0.43086328	-87.1895196757369	81.1497537905014	0
0.43091128	-87.0104088960272	80.38565972455	0
0.43095928	-86.8331245072654	79.6264166729536	0
0.43119927	-86.6577214435789	78.872189546186	0
0.43153975	-86.4842243442723	78.1229576692298	0
0.43196566	-86.3126420921347	77.3786366307281	0
0.43200825	-86.1429669459589	76.6390695513926	0
0.43207257	-85.9751888544815	75.9041370095746	0
0.43239413	-85.8092912099176	75.1737390063084	0
0.43270151	-85.6452292201494	74.4476808642543	0
0.4331742	-85.4829529408068	73.7257385330571	0
0.43322147	-85.3224218030332	73.007713438921	0
0.43336403	-85.1636130140792	72.293488893512	0
0.43375284	-85.0065260799194	71.5830474879241	0
0.434156	-84.8511549068241	70.8763689736674	0
0.43419632	-84.6974799850418	70.1733767808423	0
0.43425013	-84.5454672479697	69.4738664241317	0
0.43451918	-84.3950744780884	68.7776326064346	0
0.43475768	-84.2462610598271	68.0845267600506	0
0.43540874	-84.0989733027224	67.3944377207424	0
0.43547385	-83.9531518052354	66.7072231385829	0
0.43553896	-83.8087181650123	66.0227034667655	0
0.43563712	-83.6655849602764	65.340680872256	0
0.43612791	-83.5236752293287	64.6609623025048	0
0.43618861	-83.3829366190506	63.9833771242919	0
0.43633047	-83.2433124757071	63.3078184741398	0
0.43685651	-83.1047480166659	62.6342348580833	0
0.43690911	-82.9671889321171	61.9626039122042	0
0.43701244	-82.830593287458	61.2929112359395	0
0.43752906	-82.6949312845091	60.6251040074378	0
0.43758072	-82.5601734798515	59.9591401254061	0
0.43766772	-82.4262761913319	59.2949541116286	0
0.43803125	-82.2931650908877	58.6324018731625	0
0.4384842	-82.1607226963881	57.9711482393231	0
0.43892108	-82.0288356641598	57.3107714037315	0
0.43896477	-81.8974202022825	56.6508945130169	0
0.43906482	-81.7664043797711	55.9912740458067	0
0.43950778	-81.6357132999906	55.3317037430332	0
0.43989351	-81.5052763246864	54.6719273753398	0
0.43993208	-81.3750581423614	54.0117452360428	0
0.4399805	-81.2450726106157	53.3511399891152	0
0.44022258	-81.1153414201827	52.6902330105181	0
0.44046526	-80.9858898914533	52.0291310377304	0
0.44110979	-80.8567512360599	51.3679113121479	0
0.44118829	-80.7279885619217	50.7067645692442	0
0.44134882	-80.5996889200721	50.0459996613304	0
0.44157075	-80.4719230062682	49.3859403538768	0
0.44187617	-80.3447396931672	48.7268030498868	0
0.44237242	-80.2181664486079	48.0687122855243	0
0.44242204	-80.0922311009363	47.4118490152216	0
0.44266085	-79.966973574274	46.7564396539717	0
0.44305638	-79.8424253471316	46.1026644968053	0
0.4434804	-79.7185921745082	45.4506118160108	0
0.44352281	-79.5954787938526	44.8003175702721	0
0.44358239	-79.4731026103514	44.1518711883797	0
0.44388033	-79.3514833475557	43.5053773135737	0
0.44413197	-79.230652943301	42.8608921679287	0
0.4448116	-79.1106400635877	42.2184105688239	0
0.44487957	-78.9914759572058	41.5779636208816	0
0.44494753	-78.8731932334682	40.9396543850873	0
0.44510161	-78.7558418206365	40.303694272319	0
0.44538798	-78.6394885953218	39.67035040122	0
0.44590852	-78.5241952670339	39.0398596252846	0
0.44622624	-78.4100112152617	38.4124322161932	0
0.44663767	-78.2969720980088	37.7882737072366	0
0.44710514	-78.1851119656013	37.1675082542261	0
0.44715188	-78.0744481108117	36.5501276292931	0
0.44726461	-77.9649849016663	35.9360621251778	0
0.44766138	-77.8567052015947	35.3251312960739	0
0.44814146	-77.7495931232494	34.7171391733733	0
0.44818947	-77.6436437252466	34.1119166597572	0
0.44831245	-77.5388448811812	33.5093056432145	0
0.44875807	-77.4351746715297	32.9091594260233	0
0.44916499	-77.3326037508233	32.3113746676792	0
0.44920568	-77.2310971649806	31.7158583957287	0
0.44926133	-77.130624460829	31.1224639210452	0
0.44953958	-77.0311455657152	30.5310087181774	0
0.44978624	-76.932618923305	29.9413508013594	0
0.4504626	-76.8350045356511	29.353392286008	0
0.45056953	-76.7382713307279	28.7671181910274	0
0.45090113	-76.6423905581742	28.1825152511356	0
0.4513877	-76.5473430321308	27.5995732055268	0
0.45143636	-76.4531157671267	27.0182867949417	0
0.45152477	-76.3597021360751	26.438666733532	0
0.45195429	-76.2670952255783	25.8606726966903	0
0.45240455	-76.1753104016099	25.2843246408247	0
0.45244958	-76.0843626342282	24.7096326080993	0
